<?xml version="1.0" encoding="UTF-8"?><svg id="Introduction" xmlns="http://www.w3.org/2000/svg" viewBox="0 0 60.93 59.65"><defs><style>.cls-1{fill:#d6d93b;}.cls-2{fill:gold;}</style></defs><path class="cls-1" d="M28.15,24.78h-1.78c.11,.26,.21,.53,.29,.8,.44-.32,.93-.59,1.49-.8Z"/><path class="cls-1" d="M32.79,24.78c.54,.21,1.02,.47,1.45,.77,.08-.26,.17-.52,.26-.77h-1.71Z"/><path class="cls-2" d="M54.31,0V18.19c-2.06-3.73-7.26-5.66-11.12-5.66-5.42,0-10.03,1.99-12.91,5.83-2.83-3.57-7.21-5.73-12.48-5.77-4.24,0-8.74,1.93-11.18,5.78l-.39-5.14H0V59.65H6.62v-19.35c2.38,3.92,7.33,5.33,11.18,5.33,5.54,0,9.92-2.2,12.68-5.84,2.92,3.74,7.51,5.77,12.84,5.77,4.24,0,8.48-1.61,10.99-5.66l.39,5.01h6.23V0h-6.62Zm-21.54,35.85h-4.61c-.17,0-.28-.11-.28-.28v-1.21c0-.15,.1-.28,.28-.28h4.59c.17,0,.29,.11,.29,.29v1.2c0,.17-.1,.28-.27,.28Zm-2.43-3.85c.38,.06,.74-.18,.82-.55,.06-.3-.05-.55-.24-.78-.13-.16-.28-.3-.31-.52-.02-.17-.02-.34-.02-.51,0-1.19-.01-2.37-.02-3.56,0-.08,0-.16,.08-.2,.1-.06,.21-.02,.26,.11,.41,1.17,.96,2.27,1.58,3.33,.18,.31,.39,.6,.59,.89,.29,.43,.36,1.09-.03,1.56-.34,.42-.52,.9-.6,1.42-.02,.17-.05,.34-.07,.52,0,.08-.05,.09-.11,.09h-3.59c-.08,0-.11-.02-.12-.11-.05-.46-.1-.92-.3-1.34-.09-.19-.2-.37-.33-.53-.35-.43-.39-.9-.17-1.39,.07-.17,.19-.32,.29-.47,.77-1.18,1.4-2.44,1.91-3.75,.03-.07,.05-.15,.08-.23,.03-.09,.11-.14,.18-.13,.08,.01,.14,.06,.15,.15v1.92h-.02v1.74c0,.15,0,.3-.02,.45-.02,.2-.15,.35-.27,.5-.15,.17-.27,.35-.3,.58-.05,.36,.22,.74,.58,.8h0Zm13.43,7.41c-5.29,0-9.54-3.57-9.99-9.34,0-.31,.02-.63,.02-.95,0-.34,0-.68-.03-1.02,.05-.77,.17-1.5,.35-2.19-.8-.62-1.73-.96-2.76-1.09v.34c0,.26-.15,.41-.41,.41h-.95c-.25,0-.4-.16-.4-.41v-.34c-1.06,.12-2.01,.47-2.83,1.12,.19,.67,.31,1.38,.37,2.13-.01,.32-.02,.65-.02,.97s0,.68,.02,1.01c-.43,5.41-4.52,9.15-9.99,9.15-5.78,0-9.96-4.43-9.96-10.09s3.86-10.09,9.96-10.09c4.28,0,7.52,2.06,9.05,5.38h3.4v-.24c0-.22,.15-.37,.37-.37h1.04c.18,0,.33,.14,.34,.32v.28h3.3c1.57-3.62,5.04-5.64,9.12-5.64,5.53,0,10.09,4.18,10.09,10.28s-4.56,10.35-10.09,10.35v.03Z"/><path class="cls-1" d="M30.84,24.15h-.7c-.12,0-.17,.05-.17,.17v.72c0,.12,.04,.16,.16,.17h.72c.11,0,.15-.05,.15-.16v-.72c0-.11-.05-.16-.16-.16v-.02Z"/><path class="cls-1" d="M25.09,24.22c-.15-.23-.44-.34-.72-.28-.32,.07-.56,.4-.52,.71,.05,.41,.42,.67,.83,.59,.25-.05,.45-.24,.47-.46h1.22c-.05-.12-.1-.25-.16-.37h-1.04c-.03-.07-.04-.14-.08-.19Z"/><path class="cls-1" d="M35.79,24.78c.05,.08,.07,.15,.12,.2,.15,.16,.34,.19,.55,.14,.23-.06,.38-.27,.37-.5,0-.24-.17-.42-.41-.48-.22-.05-.48,.06-.59,.24,0,.02-.06,.05-.09,.05h-1.09c-.05,.12-.1,.24-.15,.37h1.29v-.02Z"/><path class="cls-1" d="M36.08,29.1h-.29c-.22,0-.35,.14-.35,.36v1.05c0,.2,.13,.36,.32,.36h1.09c.18,0,.36-.16,.36-.37v-1.01c0-.23-.16-.38-.4-.39h-.36c-.32-1.53-1.06-2.72-2.22-3.55-.04,.12-.07,.24-.1,.36,.11,.09,.23,.18,.34,.28,.86,.78,1.39,1.76,1.61,2.91Zm.63,.36c.09,0,.13,.05,.13,.14v.77c0,.08-.05,.13-.13,.13h-.76c-.09,0-.13-.05-.13-.14v-.38h0v-.38c0-.09,.05-.14,.13-.14h.76Z"/><path class="cls-1" d="M24.49,29.1h-.4c-.21,0-.37,.16-.37,.37v1.02c0,.23,.15,.38,.38,.39h1.03c.21,0,.35-.15,.35-.35v-1.09c0-.19-.15-.34-.34-.34h-.27c.12-.86,.67-2.14,1.77-3.06,.04-.03,.09-.06,.13-.1-.03-.12-.07-.25-.11-.37-1.13,.83-1.85,2.01-2.17,3.52h0Zm.49,.38c.09,0,.13,.05,.13,.14v.76c0,.09-.04,.13-.14,.13h-.75c-.1,0-.13-.04-.13-.14v-.75c0-.1,.04-.15,.13-.15h.76Z"/></svg>